<svg xmlns="http://www.w3.org/2000/svg" viewBox="0 0 64 64">
  <defs>
    <linearGradient id="chainbrief-mark-gradient" x1="10" x2="56" y1="8" y2="58" gradientUnits="userSpaceOnUse">
      <stop offset="0" stop-color="#38bdf8"/>
      <stop offset="0.56" stop-color="#34d399"/>
      <stop offset="1" stop-color="#a78bfa"/>
    </linearGradient>
    <linearGradient id="chainbrief-doc-gradient" x1="23" x2="45" y1="18" y2="49" gradientUnits="userSpaceOnUse">
      <stop offset="0" stop-color="#ffffff"/>
      <stop offset="1" stop-color="#bfdbfe"/>
    </linearGradient>
  </defs>
  <rect width="64" height="64" rx="16" fill="#05070b"/>
  <rect width="58" height="58" x="3" y="3" rx="14" fill="none" stroke="url(#chainbrief-mark-gradient)" stroke-width="2" stroke-opacity="0.9"/>
  <g fill="none" stroke="url(#chainbrief-mark-gradient)" stroke-width="5" stroke-linecap="round">
    <path d="M18 27.5c0-5.2 4.2-9.5 9.5-9.5H35"/>
    <path d="M46 36.5c0 5.2-4.2 9.5-9.5 9.5H29"/>
    <path d="M19 38.5c-3.5-3.5-3.5-9.1 0-12.6l6.9-6.9" stroke-opacity="0.72"/>
    <path d="M45 25.5c3.5 3.5 3.5 9.1 0 12.6l-6.9 6.9" stroke-opacity="0.72"/>
  </g>
  <path d="M25 16h16l8 8v24H25V16Z" fill="#08111f" stroke="url(#chainbrief-doc-gradient)" stroke-width="2.5" stroke-linejoin="round"/>
  <path d="M41 16v9h8" fill="none" stroke="#38bdf8" stroke-width="2.5" stroke-linejoin="round"/>
  <g fill="url(#chainbrief-mark-gradient)">
    <rect width="4" height="9" x="31" y="34" rx="1.5"/>
    <rect width="4" height="15" x="38" y="28" rx="1.5"/>
    <rect width="4" height="20" x="45" y="23" rx="1.5"/>
  </g>
  <path d="M30 24h8M30 29h12" fill="none" stroke="#dbeafe" stroke-width="2" stroke-linecap="round"/>
</svg>
